# xmcd
#
# Track frame offsets:
#	150
#	1914
#	8593
#	24606
#	32703
#	38213
#	42609
#	44422
#	49755
#	54182
#	65887
#	76741
#	91437
#	110608
#	132433
#	134510
#	141069
#	156515
#	173254
#	182603
#	201087
#	224403
#
# Disc length: 3219 seconds
#
# Revision: 1
# Processed by: cddbd v1.5.2PL0 Copyright (c) Steve Scherf et al.
# Submitted via: audiograbber 1.83.01
#
DISCID=310c9116
DTITLE=Bidla Buh - Best of
DYEAR=2013
DGENRE=Vocal
TTITLE0=01 Wochenend und Sonnenschein
TTITLE1=02 Prachtkerle!
TTITLE2=03 Pfeiflied
TTITLE3=04 Mein kleiner grüner Kaktus
TTITLE4=05 Kaktus goes Rap
TTITLE5=06 Kaktus in Spanien
TTITLE6=07 Kaktus trifft Kalinka
TTITLE7=08 Kaktus in russland
TTITLE8=09 Kaktus rockt
TTITLE9=10 Wiebke
TTITLE10=11 Die Ballade von der Made
TTITLE11=12 Vegetario
TTITLE12=13 Busenblues
TTITLE13=14 Hummelise
TTITLE14=15 Stille Nacht, heilige Nacht
TTITLE15=16 Weihnachtsrock
TTITLE16=17 Das wünsch ich mir
TTITLE17=18 Lametta
TTITLE18=19 When the snow falls wunderbar
TTITLE19=20 Advent
TTITLE20=21 Weihnachten bei den Stars
TTITLE21=22 Have yourself a merry little Christmas
EXTD=
EXTT0=
EXTT1=
EXTT2=
EXTT3=
EXTT4=
EXTT5=
EXTT6=
EXTT7=
EXTT8=
EXTT9=
EXTT10=
EXTT11=
EXTT12=
EXTT13=
EXTT14=
EXTT15=
EXTT16=
EXTT17=
EXTT18=
EXTT19=
EXTT20=
EXTT21=
PLAYORDER=
